<?xml version="1.0" encoding="UTF-8"?>
<svg id="Capa_1" xmlns="http://www.w3.org/2000/svg" version="1.1" viewBox="0 0 852.07 852.07">
  <!-- Generator: Adobe Illustrator 30.4.0, SVG Export Plug-In . SVG Version: 2.1.4 Build 226)  -->
  <defs>
    <style>
      .st0 {
        fill: #2fa1fd;
      }

      .st1 {
        fill: #fd9630;
      }

      .st2 {
        fill: #fefefe;
      }
    </style>
  </defs>
  <path class="st2" d="M0,852.07V0h852.07v852.07H0ZM530.43,609.6l211.09-35.61-3.95-23.64c-.08-.51.03-1.23-.39-1.43-.29-.14-.64.05-1.24.15l-189.3,31.76-35.34-201.73-12.89-73.54-4.5-25.88-24.65,4.34c-.84.15-1.53,1.36-2.83,1.03l-79.86,13.47,4.2,25.16,82.46-13.82,52.52,300.1c1.58.26,2.59,0,4.68-.36ZM320.04,610.88l-34.12-204.93-36.27-.1-20.66-123.91-126.3.03,17.5,122.64-.15,2.83,29.11,203.47,170.9-.03ZM679.18,394.82l-140.79,22.45,22.7,142.4,140.79-22.45-22.7-142.4ZM456.82,438.36l24.43,146.78h-128.14s-18.2-127.16-18.2-127.16l-8.14-52.06-20.67.03,29.31,204.96,170.94-.04-34.16-204.97-20.11.03,4.53,28.26.22,4.16ZM562.79,650.68c0-18.22-14.77-32.99-32.99-32.99s-32.99,14.77-32.99,32.99,14.77,32.99,32.99,32.99,32.99-14.77,32.99-32.99Z"/>
  <g>
    <path class="st1" d="M530.43,609.6c-2.09.35-3.1.62-4.68.36l-52.52-300.1-82.46,13.82-4.2-25.16,79.86-13.47c1.29.33,1.98-.88,2.83-1.03l24.65-4.34,4.5,25.88,12.89,73.54,35.34,201.73,189.3-31.76c.6-.1.95-.29,1.24-.15.42.2.31.92.39,1.43l3.95,23.64-211.09,35.61Z"/>
    <circle class="st1" cx="529.8" cy="650.68" r="32.99"/>
    <g>
      <polygon class="st0" points="456.82 438.36 456.61 434.19 452.08 405.93 472.19 405.9 506.35 610.87 335.41 610.91 306.1 405.95 326.77 405.92 334.91 457.98 353.11 585.15 481.25 585.13 456.82 438.36"/>
      <g>
        <path class="st0" d="M320.04,610.88l-170.9.03-29.11-203.47.15-2.83-17.5-122.64,126.3-.03,20.66,123.91,36.27.1,34.12,204.93ZM227.14,405.61l-17.02-102.3-83.01.03,14.59,102.33,85.43-.05ZM294.99,585.15l-25.6-153.6-124.51.02,21.95,153.6,128.16-.02Z"/>
        <polygon class="st2" points="294.99 585.15 166.82 585.18 144.88 431.58 269.39 431.56 294.99 585.15"/>
        <polygon class="st2" points="227.14 405.61 141.71 405.67 127.12 303.34 210.12 303.31 227.14 405.61"/>
      </g>
    </g>
    <g>
      <path class="st0" d="M679.18,394.82l22.7,142.4-140.79,22.45-22.7-142.4,140.79-22.45ZM663.04,417.63l-103.03,16.43,16.1,100.97,103.03-16.43-16.1-100.97Z"/>
      <rect class="st2" x="567.41" y="425.21" width="104.33" height="102.24" transform="translate(-67.3 103.54) rotate(-9.06)"/>
    </g>
  </g>
</svg>
